# xmcd CD database file generated by Grip 2.96
# 
# Track frame offsets:
#       150
#       33276
#       46106
#       79226
#       92624
#       118405
#       139367
#       162576
#       182446
#       200630
#       214064
#       231223
#       249208
#       269029
#       286302
#       306099
#       324242
# 
# Disc length: 4645 seconds
# 
# Revision: 0
# Processed by: cddbd v1.4PL0 Copyright (c) Steve Scherf et al.
# Submitted via: Grip 2.96
# 
DISCID=f5122311
DTITLE=Albert King - I'll play the blues for you/Lovejoy
DYEAR=1900
DGENRE=
TTITLE0=I'll play the blues for you
TTITLE1=Little brother (Make a way)
TTITLE2=Breaking up somebody's home
TTITLE3=High cost of loving
TTITLE4=I'll be doggone
TTITLE5=Answer to the laundromat blues
TTITLE6=Don't burn down the bridge
TTITLE7=Angel of mercy
TTITLE8=Honky tonk woman
TTITLE9=Bay area blues
TTITLE10=Corina corina
TTITLE11=She cought the katy
TTITLE12=For the love of a woman
TTITLE13=Lovejoy, ill.
TTITLE14=Everybody wants to go to heaven
TTITLE15=Going back to iuka
TTITLE16=Like a road leading home
EXTD=
EXTT0=
EXTT1=
EXTT2=
EXTT3=
EXTT4=
EXTT5=
EXTT6=
EXTT7=
EXTT8=
EXTT9=
EXTT10=
EXTT11=
EXTT12=
EXTT13=
EXTT14=
EXTT15=
EXTT16=
PLAYORDER=
